<?xml version="1.0" encoding="utf-8"?>
<!-- Generator: Adobe Illustrator 21.0.2, SVG Export Plug-In . SVG Version: 6.00 Build 0)  -->
<svg version="1.1" id="Layer_1" xmlns="http://www.w3.org/2000/svg" xmlns:xlink="http://www.w3.org/1999/xlink" x="0px" y="0px"
	 viewBox="0 0 194.8 72.8" style="enable-background:new 0 0 194.8 72.8;" xml:space="preserve">
<style type="text/css">
	.st0{fill:#13528E;}
	.st1{fill:#93BFCD;}
	.st2{fill:none;}
	.st3{fill:#FFFFFF;}
</style>
<g>
	<g>
		<path class="st0" d="M105.9,27.1H104l-10.4-9.7V27H92V7.3h1.5v9l9.6-9h1.8v0.1L95,16.8L105.9,27V27.1z"/>
		<path class="st0" d="M136.4,17.2c0,5.2-3.3,10.2-9.9,10.2s-9.9-5-9.9-10.2c0-5.3,3.3-10.1,9.9-10.1S136.5,11.9,136.4,17.2z
			 M118,17.2c0,4.5,2.8,8.8,8.5,8.8c5.6,0,8.5-4.3,8.5-8.8c0-4.6-2.8-8.8-8.5-8.8S118,12.6,118,17.2z"/>
		<path class="st0" d="M167.1,27.1h-2l-6.8-7.5h-5.4v7.5h-1.5V7.3c2.9,0,5.8,0,8.7,0c4.3,0,6.5,3.1,6.5,6.1c0,3.2-2.1,6-6.4,6
			L167.1,27.1z M152.9,18.2h7c3.4,0,5-1.9,5-4.7c0-2.3-1.6-4.7-4.8-4.7h-7.2V18.2z"/>
		<path class="st0" d="M182.4,16.4H194v1.4h-11.6v7.8h12.5v1.5h-14V7.3h13.6v1.4h-12.1V16.4z"/>
	</g>
	<g>
		<path class="st1" d="M97.9,51.4H92v-3.2c5.3,0,9.8,0,15.2,0v3.2h-5.8v15.3h-3.5C97.9,66.7,97.9,51.4,97.9,51.4z"/>
		<path class="st1" d="M136.2,66.7H132l-5.4-6.2h-3.3v6.2h-3.5V48.2c2.9,0,5.8,0,8.8,0c4.3,0,6.6,2.9,6.6,6.1c0,2.5-1.2,5.1-4.7,5.8
			l5.6,6.3L136.2,66.7L136.2,66.7z M123.3,51.5v5.9h5.3c2.2,0,3.2-1.5,3.2-2.9c0-1.5-1-2.9-3.2-2.9L123.3,51.5L123.3,51.5z"/>
		<path class="st1" d="M161.2,63.2h-9.6l-1.6,3.5h-3.8l8.3-18.4h3.8l8.3,18.4h-3.8L161.2,63.2z M156.4,52.1l-3.4,7.8h6.8L156.4,52.1
			z"/>
		<path class="st1" d="M190.8,48.3h3.8v0.2l-6.2,8.9l6.4,9.2v0.1h-3.9l-4.7-6.9l-4.7,6.9h-3.9v-0.1l6.4-9.2l-6.2-8.9v-0.2h3.8
			l4.6,6.9L190.8,48.3z"/>
	</g>
	<path class="st1" d="M46.7,21.8L59.3,8.1C56,5.4,52.1,3.3,47.9,1.9l-8.8,9.8C42.1,14.5,44.7,17.9,46.7,21.8z"/>
	<path d="M1.6,25.7"/>
	<path d="M59.3,8.1L59.3,8.1c0.1,0,0.1,0.1,0.2,0.1C59.5,8.2,59.4,8.2,59.3,8.1z"/>
	<path class="st1" d="M48.2,25.1c-0.3-0.9-0.7-1.7-1.1-2.5c-0.1-0.3-0.3-0.5-0.4-0.7L35.1,34.2l14,14.7C51.4,41.3,51.3,33,48.2,25.1
		z"/>
	<path class="st1" d="M34.1,7.8c-0.1-0.1-0.2-0.1-0.3-0.2c-3.4-2.2-7.1-3.8-11-4.7v26.8l0.3-0.4L39,11.6C37.5,10.3,35.9,9,34.1,7.8z
		"/>
	<path class="st0" d="M40.2,0.2C39,0.1,37.7,0,36.4,0s-2.6,0.1-3.8,0.2l0,0c-3.4,0.4-6.7,1.2-9.7,2.4l0,0v0.3c3.9,1,7.6,2.6,11,4.7
		c0.1,0.1,0.2,0.1,0.3,0.2c1.8,1.1,3.4,2.5,5,3.9L48,1.9l0,0C45.5,1.1,42.9,0.5,40.2,0.2z"/>
	<line class="st2" x1="51.3" y1="69.6" x2="51.3" y2="69.6"/>
	<path class="st1" d="M23.1,39.8l-0.3-0.3v30.7c1.7,0.7,3.5,1.2,5.3,1.7c0.5,0.1,0.5,0.1,0.5,0.1s7.3-3.9,10.2-6.6l0.1-0.1
		c1.5-1.4,2.8-2.8,4-4.4L23.1,39.8z"/>
	<path class="st0" d="M47.1,22.5c0.4,0.8,0.8,1.7,1.1,2.5c3.1,7.9,3.2,16.2,1,23.8L62,62.3c6.7-6.6,10.8-15.8,10.8-25.9
		c0-11.3-5.2-21.5-13.3-28.1c-0.1,0-0.1-0.1-0.2-0.1L46.7,21.8C46.8,22,46.9,22.3,47.1,22.5z"/>
	<path class="st1" d="M54.8,54.8c-0.8-0.9-5.7-5.9-5.7-5.9s-1.3,5.6-6.1,12c2.7,2.8,5.2,5.4,8.3,8.8c7.5-3.8,10.6-7.3,10.6-7.3
		S57.3,57.4,54.8,54.8z"/>
	<path class="st1" d="M9.2,12.2c-2.5,2.8-4.5,5.9-6,9.3C3.1,21.7,3.1,21.8,3,22c-0.2,0.4-0.4,0.8-0.5,1.2c-0.2,0.6-0.4,1.1-0.6,1.7
		c-0.1,0.3-0.2,0.5-0.2,0.8c-0.2,0.5-0.3,1-0.5,1.6c0,0.2-0.1,0.3-0.1,0.5c-0.2,0.7-0.3,1.5-0.5,2.2c0,0.1,0,0.2,0,0.3
		c-0.1,0.8-0.2,1.5-0.3,2.3v0.1C0.1,34,0,35.3,0,36.7c0,0.2,0,0.5,0,0.7c0,0.4,0,0.8,0,1.2c0,0.3,0,0.6,0.1,0.9c0,0.3,0.1,0.7,0.1,1
		s0.1,0.6,0.1,0.9c0,0.3,0.1,0.7,0.2,1c0,0.3,0.1,0.6,0.1,0.9c0.1,0.4,0.2,0.7,0.2,1.1C0.9,44.9,1,45.5,1.2,46
		c0.1,0.2,0.1,0.5,0.2,0.7c0.1,0.4,0.2,0.7,0.3,1.1c0.1,0.2,0.1,0.4,0.2,0.6c0.1,0.4,0.3,0.8,0.4,1.1c0.1,0.2,0.1,0.3,0.2,0.5
		c0.2,0.4,0.3,0.8,0.5,1.2l0,0c1.5,3.5,3.6,6.7,6.1,9.5L9.2,12.2L9.2,12.2z"/>
	<path class="st3" d="M35.1,34.2l11.5-12.4c-2-3.9-4.6-7.2-7.6-10.1l-16.2,18v-27v0c0,0-0.1,0-0.2,0.1C14,6.3,9.1,12.3,9.1,12.3
		v48.4c0,0,0.2,0.3,1.4,1.5c3.4,3.5,7.6,6.2,12.3,8.1V39.5L43,60.8c0.1-0.1,0.2-0.3,0.3-0.4c2.6-3.5,4.6-7.4,5.8-11.5L35.1,34.2z"/>
	<path class="st0" d="M43,60.8c-1.2,1.6-2.5,3-4,4.4c0,0-5,3.9-10.3,6.7c1.3,0.3,2.9,0.9,7.7,0.9c2.3,0,4.5-0.2,6.6-0.6
		c0.5-0.1,1.1-0.2,1.6-0.3c0.3-0.1,0.7-0.2,1-0.3c0.7-0.2,1.5-0.4,2.2-0.6c0.6-0.2,1.1-0.4,1.7-0.6l0,0c0.5-0.2,1.1-0.4,1.6-0.7h0.1
		L43,60.8z"/>
</g>
</svg>
