<svg width="24" height="24" viewBox="0 0 24 24" fill="none" xmlns="http://www.w3.org/2000/svg">
<path d="M20 11L18.59 9.59L13 15.17V3H11V15.17L5.42 9.58L4 11L12 19L20 11Z" fill="#A8A8A8"/>
<path d="M12.5 22.1448H16.7092V20.3448H12.5V22.1448ZM7.75 22.1448H12.5V20.3448H7.75V22.1448ZM16.7092 22.1448H17.18V20.3448H16.7092V22.1448ZM20.7679 20.9285L21.0473 20.7145L19.9527 19.2855L19.6733 19.4996L20.7679 20.9285ZM2.92525 20.6926L3.03667 20.785L4.18616 19.3999L4.07475 19.3074L2.92525 20.6926ZM6.80445 22.1448H7.75V20.3448H6.80445V22.1448ZM3.03667 20.785C4.0956 21.6638 5.42838 22.1448 6.80445 22.1448V20.3448C5.8482 20.3448 4.92203 20.0105 4.18616 19.3999L3.03667 20.785ZM17.18 22.1448C18.4771 22.1448 19.7381 21.7173 20.7679 20.9285L19.6733 19.4996C18.9577 20.0477 18.0814 20.3448 17.18 20.3448V22.1448Z" fill="#A8A8A8"/>
</svg>
