<svg width="14" height="14" viewBox="0 0 14 14" fill="none" xmlns="http://www.w3.org/2000/svg">
<path d="M7.00002 1.16666C3.78002 1.16666 1.16669 3.78 1.16669 7C1.16669 10.22 3.78002 12.8333 7.00002 12.8333C10.22 12.8333 12.8334 10.22 12.8334 7C12.8334 3.78 10.22 1.16666 7.00002 1.16666ZM6.41669 11.6258C4.11252 11.34 2.33335 9.38 2.33335 7C2.33335 6.63833 2.38002 6.29416 2.45585 5.95583L5.25002 8.75V9.33333C5.25002 9.975 5.77502 10.5 6.41669 10.5V11.6258ZM10.4417 10.1442C10.29 9.67166 9.85835 9.33333 9.33335 9.33333H8.75002V7.58333C8.75002 7.2625 8.48752 7 8.16669 7H4.66669V5.83333H5.83335C6.15419 5.83333 6.41669 5.57083 6.41669 5.25V4.08333H7.58335C8.22502 4.08333 8.75002 3.55833 8.75002 2.91666V2.6775C10.4592 3.37166 11.6667 5.04583 11.6667 7C11.6667 8.21333 11.2 9.31583 10.4417 10.1442Z" fill="#1A76AF"/>
</svg>
