<svg width="24" height="24" viewBox="0 0 24 24" fill="none" xmlns="http://www.w3.org/2000/svg">
<g clip-path="url(#clip0_37_57)">
<path d="M21.2901 5.88995L11.2901 15.8899C10.9001 16.2799 10.2701 16.2799 9.88012 15.8899L7.05012 13.0599C6.66012 12.6699 6.66012 12.0399 7.05012 11.6499C7.44012 11.2599 8.07012 11.2599 8.46012 11.6499L10.5801 13.7699L19.8701 4.47995C20.2601 4.08995 20.8901 4.08995 21.2801 4.47995C21.6801 4.86995 21.6801 5.49995 21.2901 5.88995ZM12.0001 19.9999C7.29012 19.9999 3.52012 15.9099 4.05012 11.0999C4.44012 7.57995 7.17012 4.68995 10.6601 4.10995C12.4701 3.80995 14.1901 4.12995 15.6501 4.88995C16.0401 5.08995 16.5101 5.01995 16.8201 4.70995C17.3001 4.22995 17.1801 3.41995 16.5801 3.10995C15.1101 2.35995 13.4501 1.94995 11.6801 1.99995C6.54012 2.15995 2.27012 6.33995 2.01012 11.4699C1.72012 17.2399 6.30012 21.9999 12.0001 21.9999C13.2001 21.9999 14.3401 21.7899 15.4101 21.3999C16.0901 21.1499 16.2801 20.2699 15.7601 19.7499C15.4901 19.4799 15.0801 19.3799 14.7201 19.5199C13.8701 19.8299 12.9501 19.9999 12.0001 19.9999ZM19.0001 14.9999H17.0001C16.4501 14.9999 16.0001 15.4499 16.0001 15.9999C16.0001 16.5499 16.4501 16.9999 17.0001 16.9999H19.0001V18.9999C19.0001 19.5499 19.4501 19.9999 20.0001 19.9999C20.5501 19.9999 21.0001 19.5499 21.0001 18.9999V16.9999H23.0001C23.5501 16.9999 24.0001 16.5499 24.0001 15.9999C24.0001 15.4499 23.5501 14.9999 23.0001 14.9999H21.0001V12.9999C21.0001 12.4499 20.5501 11.9999 20.0001 11.9999C19.4501 11.9999 19.0001 12.4499 19.0001 12.9999V14.9999Z" fill="black"/>
</g>
<defs>
<clipPath id="clip0_37_57">
<rect width="24" height="24" fill="white"/>
</clipPath>
</defs>
</svg>
