<svg width="25" height="24" viewBox="0 0 25 24" fill="none" xmlns="http://www.w3.org/2000/svg">
<mask id="mask0_3814_57880" style="mask-type:alpha" maskUnits="userSpaceOnUse" x="0" y="0" width="25" height="24">
<rect x="0.246094" y="24" width="24" height="24" transform="rotate(-90 0.246094 24)" fill="#D9D9D9"/>
</mask>
<g mask="url(#mask0_3814_57880)">
<path d="M15.7461 12L11.2461 7.5L9.84609 8.925L12.9211 12L9.84609 15.075L11.2461 16.5L15.7461 12ZM22.2461 12C22.2461 13.3833 21.9836 14.6833 21.4586 15.9C20.9336 17.1167 20.2211 18.175 19.3211 19.075C18.4211 19.975 17.3628 20.6875 16.1461 21.2125C14.9294 21.7375 13.6294 22 12.2461 22C10.8628 22 9.56276 21.7375 8.34609 21.2125C7.12943 20.6875 6.07109 19.975 5.17109 19.075C4.27109 18.175 3.55859 17.1167 3.03359 15.9C2.50859 14.6833 2.24609 13.3833 2.24609 12C2.24609 10.6167 2.50859 9.31667 3.03359 8.1C3.55859 6.88333 4.27109 5.825 5.17109 4.925C6.07109 4.025 7.12943 3.3125 8.34609 2.7875C9.56276 2.2625 10.8628 2 12.2461 2C13.6294 2 14.9294 2.2625 16.1461 2.7875C17.3628 3.3125 18.4211 4.025 19.3211 4.925C20.2211 5.825 20.9336 6.88333 21.4586 8.1C21.9836 9.31667 22.2461 10.6167 22.2461 12ZM20.2461 12C20.2461 9.76667 19.4711 7.875 17.9211 6.325C16.3711 4.775 14.4794 4 12.2461 4C10.0128 4 8.12109 4.775 6.57109 6.325C5.02109 7.875 4.24609 9.76667 4.24609 12C4.24609 14.2333 5.02109 16.125 6.57109 17.675C8.12109 19.225 10.0128 20 12.2461 20C14.4794 20 16.3711 19.225 17.9211 17.675C19.4711 16.125 20.2461 14.2333 20.2461 12Z" fill="#1C1B1F"/>
</g>
</svg>
