<?xml version="1.0" encoding="UTF-8"?>
<svg width="557px" height="419px" viewBox="0 0 557 419" version="1.1" xmlns="http://www.w3.org/2000/svg" xmlns:xlink="http://www.w3.org/1999/xlink">
    <!-- Generator: Sketch 63.1 (92452) - https://sketch.com -->
    <title>Group</title>
    <desc>Created with Sketch.</desc>
    <g id="Page-1" stroke="none" stroke-width="1" fill="none" fill-rule="evenodd">
        <g id="Group" transform="translate(-11.880491, -105.743335)" fill="#13528E" fill-rule="nonzero">
            <g id="001-reload" transform="translate(335.880491, 385.243335) scale(-1, 1) rotate(46.000000) translate(-335.880491, -385.243335) translate(139.880491, 235.743335)">
                <path d="M385.456,4.511 C385.107268,3.11607359 384.73077,1.73732009 384.326504,0.374739503 C378.463104,1.80148947 373.828867,2.94049865 370.423793,3.79176705 C366.869442,4.680355 362.824235,5.69122684 358.288175,6.82438257 C358.62198,8.30314599 358.944588,9.6653518 359.256,10.911 C376.156,80.511 353.656,153.611 300.556,201.611 C263.256,235.311 216.456,251.911 169.856,251.911 C125.356,251.911 80.956,236.811 45.156,207.011 L103.956,201.711 C111.356,201.011 116.856,194.511 116.156,187.011 C115.456,179.511 108.956,174.111 101.456,174.811 L12.556,182.811 C5.156,183.511 -0.344,190.011 0.356,197.511 L8.356,286.411 C8.956,293.411 14.856,298.711 21.756,298.711 C22.156,298.711 22.556,298.711 22.956,298.611 C30.356,297.911 35.856,291.411 35.156,283.911 L30.356,229.811 C66.656,259.211 111.156,276.311 158.656,278.711 C162.456,278.911 166.256,279.011 169.956,279.011 C225.056,279.011 277.456,258.811 318.656,221.611 C379.056,166.911 404.656,83.811 385.456,4.511 Z" id="Path"></path>
            </g>
            <g id="001-reload-copy" transform="translate(245.000000, 244.500000) scale(-1, 1) rotate(-135.000000) translate(-245.000000, -244.500000) translate(49.000000, 95.000000)">
                <path d="M385.456,4.511 C385.107268,3.11607359 384.73077,1.73732009 384.326504,0.374739503 C378.463104,1.80148947 373.828867,2.94049865 370.423793,3.79176705 C366.869442,4.680355 362.824235,5.69122684 358.288175,6.82438257 C358.62198,8.30314599 358.944588,9.6653518 359.256,10.911 C376.156,80.511 353.656,153.611 300.556,201.611 C263.256,235.311 216.456,251.911 169.856,251.911 C125.356,251.911 80.956,236.811 45.156,207.011 L103.956,201.711 C111.356,201.011 116.856,194.511 116.156,187.011 C115.456,179.511 108.956,174.111 101.456,174.811 L12.556,182.811 C5.156,183.511 -0.344,190.011 0.356,197.511 L8.356,286.411 C8.956,293.411 14.856,298.711 21.756,298.711 C22.156,298.711 22.556,298.711 22.956,298.611 C30.356,297.911 35.856,291.411 35.156,283.911 L30.356,229.811 C66.656,259.211 111.156,276.311 158.656,278.711 C162.456,278.911 166.256,279.011 169.956,279.011 C225.056,279.011 277.456,258.811 318.656,221.611 C379.056,166.911 404.656,83.811 385.456,4.511 Z" id="Path"></path>
            </g>
        </g>
    </g>
</svg>