<?xml version="1.0" encoding="UTF-8"?>
<svg width="62px" height="41px" viewBox="0 0 62 41" version="1.1" xmlns="http://www.w3.org/2000/svg" xmlns:xlink="http://www.w3.org/1999/xlink">
    <!-- Generator: Sketch 63.1 (92452) - https://sketch.com -->
    <title>Fill 591</title>
    <desc>Created with Sketch.</desc>
    <g id="Icons" stroke="none" stroke-width="1" fill="none" fill-rule="evenodd">
        <g id="Artboard-Copy" transform="translate(-1.000000, -13.000000)" fill="#13528E">
            <path d="M61.6067416,49.6461524 L43.5503083,35.988764 L32.4259963,44.4022581 C32.1839529,44.5961174 31.8354105,44.6058103 31.5740037,44.411951 L20.44001,35.988764 L2.39325843,49.6461524 C2.48039403,50.2471162 2.76116431,50.7899223 3.16779712,51.1970269 L3.17747885,51.1970269 C3.68092901,51.7010611 4.37801383,52.011236 5.14287079,52.011236 L58.8474475,52.011236 C59.6123044,52.011236 60.3093893,51.7010611 60.8128394,51.1970269 C61.229154,50.7899223 61.5099242,50.2471162 61.6067416,49.6461524 Z M43.1164297,34.5726846 L32.0048353,42.9550562 L20.893241,34.5823306 L20.864229,34.5630386 L2.39325843,20.6342186 L2.39325843,17.1809516 C2.39325843,16.4092718 2.70271971,15.71476 3.21526497,15.2131682 C3.71813956,14.7115763 4.41442746,14.3932584 5.17841001,14.3932584 L58.82159,14.3932584 C59.5855725,14.3932584 60.2818604,14.7019303 60.784735,15.2131682 C61.2972803,15.71476 61.6067416,16.4092718 61.6067416,17.1809516 L61.6067416,20.6342186 L43.135771,34.5630386 L43.1164297,34.5726846 Z M44.8876404,34.9438202 L61.6067416,22.0561798 L61.6067416,47.8314607 L44.8876404,34.9438202 Z M2.39325843,22.0561798 L19.1123596,34.9438202 L2.39325843,47.8314607 L2.39325843,22.0561798 Z M58.8221806,13 C59.9730151,13 61.01747,13.4734147 61.7717985,14.2270136 L61.7814693,14.2270136 C62.5357978,14.9806125 63,16.0337186 63,17.18344 L63,49.2210544 C63,50.3707758 62.5357978,51.4142204 61.7814693,52.1774808 C61.01747,52.9310797 59.9730151,53.4044944 58.8221806,53.4044944 L5.17781937,53.4044944 C4.03665575,53.4044944 2.9922009,52.9310797 2.23787241,52.1774808 L2.22820153,52.1774808 C1.46420215,51.4142204 1,50.3707758 1,49.2210544 L1,17.18344 C1,16.0240571 1.46420215,14.9806125 2.22820153,14.2270136 C2.98253003,13.4734147 4.02698487,13 5.17781937,13 L58.8221806,13 Z" id="Fill-591"></path>
        </g>
    </g>
</svg>