<svg width="25" height="24" viewBox="0 0 25 24" fill="none" xmlns="http://www.w3.org/2000/svg">
<g clip-path="url(#clip0_816_7443)">
<path d="M12.9453 8C14.0453 8 14.9453 7.1 14.9453 6C14.9453 4.9 14.0453 4 12.9453 4C11.8453 4 10.9453 4.9 10.9453 6C10.9453 7.1 11.8453 8 12.9453 8ZM12.9453 10C11.8453 10 10.9453 10.9 10.9453 12C10.9453 13.1 11.8453 14 12.9453 14C14.0453 14 14.9453 13.1 14.9453 12C14.9453 10.9 14.0453 10 12.9453 10ZM12.9453 16C11.8453 16 10.9453 16.9 10.9453 18C10.9453 19.1 11.8453 20 12.9453 20C14.0453 20 14.9453 19.1 14.9453 18C14.9453 16.9 14.0453 16 12.9453 16Z" fill="black"/>
</g>
<defs>
<clipPath id="clip0_816_7443">
<rect width="24" height="24" fill="white" transform="translate(0.945312)"/>
</clipPath>
</defs>
</svg>
