<svg width="48" height="48" viewBox="0 0 48 48" fill="none" xmlns="http://www.w3.org/2000/svg">
<path d="M16.55 26.45H18.4V22.3H20.8C21.3242 22.3 21.7635 22.1227 22.1181 21.7681C22.4727 21.4135 22.65 20.9742 22.65 20.45V18.05C22.65 17.5258 22.4727 17.0865 22.1181 16.7319C21.7635 16.3773 21.3242 16.2 20.8 16.2H16.55V26.45ZM18.4 20.45V18.05H20.8V20.45H18.4ZM24.85 26.45H29.05C29.55 26.45 29.9833 26.2727 30.35 25.9181C30.7167 25.5635 30.9 25.1242 30.9 24.6V18.05C30.9 17.5258 30.7167 17.0865 30.35 16.7319C29.9833 16.3773 29.55 16.2 29.05 16.2H24.85V26.45ZM26.7 24.6V18.05H29.05V24.6H26.7ZM33.35 26.45H35.2V22.3H37.7V20.45H35.2V18.05H37.7V16.2H33.35V26.45ZM13 38C12.2 38 11.5 37.7 10.9 37.1C10.3 36.5 10 35.8 10 35V7C10 6.2 10.3 5.5 10.9 4.9C11.5 4.3 12.2 4 13 4H41C41.8 4 42.5 4.3 43.1 4.9C43.7 5.5 44 6.2 44 7V35C44 35.8 43.7 36.5 43.1 37.1C42.5 37.7 41.8 38 41 38H13ZM13 35H41V7H13V35ZM7 44C6.2 44 5.5 43.7 4.9 43.1C4.3 42.5 4 41.8 4 41V10H7V41H38V44H7Z" fill="black"/>
</svg>
