<svg width="48" height="48" viewBox="0 0 48 48" fill="none" xmlns="http://www.w3.org/2000/svg">
<path d="M17 42C16.175 42 15.4688 41.7063 14.8813 41.1188C14.2938 40.5313 14 39.825 14 39V17C14 16.175 14.2938 15.4688 14.8813 14.8813C15.4688 14.2938 16.175 14 17 14H39C39.825 14 40.5313 14.2938 41.1188 14.8813C41.7063 15.4688 42 16.175 42 17V39C42 39.825 41.7063 40.5313 41.1188 41.1188C40.5313 41.7063 39.825 42 39 42H17ZM17 22.3H39V17H17V22.3ZM25.3 30.7H30.7V25.3H25.3V30.7ZM25.3 39H30.7V33.7H25.3V39ZM17 30.7H22.3V25.3H17V30.7ZM33.7 30.7H39V25.3H33.7V30.7ZM17 39H22.3V33.7H17V39ZM33.7 39H39V33.7H33.7V39ZM9 34C8.175 34 7.46875 33.7063 6.88125 33.1188C6.29375 32.5313 6 31.825 6 31V9C6 8.175 6.29375 7.46875 6.88125 6.88125C7.46875 6.29375 8.175 6 9 6H31C31.825 6 32.5313 6.29375 33.1188 6.88125C33.7063 7.46875 34 8.175 34 9V12.5H31V9H9V31H12.5V34H9Z" fill="black"/>
</svg>
